<?xml version="1.0" encoding="UTF-8" standalone="no"?>
<svg
   xmlns:dc="http://purl.org/dc/elements/1.1/"
   xmlns:cc="http://creativecommons.org/ns#"
   xmlns:rdf="http://www.w3.org/1999/02/22-rdf-syntax-ns#"
   xmlns:svg="http://www.w3.org/2000/svg"
   xmlns="http://www.w3.org/2000/svg"
   viewBox="0 0 96.555594 27.997731"
   height="27.997732"
   width="96.555595"
   xml:space="preserve"
   id="svg2"
   version="1.1"><metadata
     id="metadata8"><rdf:RDF><cc:Work
         rdf:about=""><dc:format>image/svg+xml</dc:format><dc:type
           rdf:resource="http://purl.org/dc/dcmitype/StillImage" /><dc:title></dc:title></cc:Work></rdf:RDF></metadata><defs
     id="defs6"><clipPath
       id="clipPath26"
       clipPathUnits="userSpaceOnUse"><path
         id="path24"
         d="M 0,0 H 240.945 V 155.906 H 0 Z" /></clipPath><clipPath
       id="clipPath34"
       clipPathUnits="userSpaceOnUse"><path
         id="path32"
         d="M -9.24472,62.4283 H 7.05423 V 57.0924 H -9.24472 Z" /></clipPath><clipPath
       id="clipPath92"
       clipPathUnits="userSpaceOnUse"><path
         id="path90"
         d="M 0,0 H 240.945 V 155.906 H 0 Z" /></clipPath><clipPath
       id="clipPath100"
       clipPathUnits="userSpaceOnUse"><path
         id="path98"
         d="M 73.6124,59.2184 H 78.421 V 52.8669 H 73.6124 Z" /></clipPath><clipPath
       id="clipPath116"
       clipPathUnits="userSpaceOnUse"><path
         id="path114"
         d="m 5.05423,62.4283 h 3.27072 v -3.513 H 5.05423 Z" /></clipPath><clipPath
       id="clipPath132"
       clipPathUnits="userSpaceOnUse"><path
         id="path130"
         d="M 52.5609,51.9313 H 73.0863 V 42.8899 H 52.5609 Z" /></clipPath><clipPath
       id="clipPath148"
       clipPathUnits="userSpaceOnUse"><path
         id="path146"
         d="M 40.3514,51.2863 H 54.5609 V 42.8899 H 40.3514 Z" /></clipPath><clipPath
       id="clipPath164"
       clipPathUnits="userSpaceOnUse"><path
         id="path162"
         d="M 15.0933,51.5627 H 26.2129 V 44.6308 H 15.0933 Z" /></clipPath><clipPath
       id="clipPath180"
       clipPathUnits="userSpaceOnUse"><path
         id="path178"
         d="M 4.00462,56.6831 H 15.0584 V 48.1595 H 4.00462 Z" /></clipPath><clipPath
       id="clipPath200"
       clipPathUnits="userSpaceOnUse"><path
         id="path198"
         d="M 0,0 H 240.945 V 155.906 H 0 Z" /></clipPath><clipPath
       id="clipPath208"
       clipPathUnits="userSpaceOnUse"><path
         id="path206"
         d="m 13.0584,51.5627 h 4.0349 v -5.5281 h -4.0349 z" /></clipPath><clipPath
       id="clipPath228"
       clipPathUnits="userSpaceOnUse"><path
         id="path226"
         d="M 0,0 H 240.945 V 155.906 H 0 Z" /></clipPath><clipPath
       id="clipPath236"
       clipPathUnits="userSpaceOnUse"><path
         id="path234"
         d="m 71.0863,55.3413 h 4.5259 v -8.7479 h -4.5259 z" /></clipPath><clipPath
       id="clipPath252"
       clipPathUnits="userSpaceOnUse"><path
         id="path250"
         d="M 24.1375,50.0518 H 36.3258 V 44.6114 H 24.1375 Z" /></clipPath><clipPath
       id="clipPath270"
       clipPathUnits="userSpaceOnUse"><path
         id="path268"
         d="m 34.2704,51.5062 h 8.0609 v -7.0179 h -8.0609 z" /></clipPath><clipPath
       id="clipPath308"
       clipPathUnits="userSpaceOnUse"><path
         id="path306"
         d="M 0,0 H 240.945 V 155.906 H 0 Z" /></clipPath><clipPath
       id="clipPath316"
       clipPathUnits="userSpaceOnUse"><path
         id="path314"
         d="M 76.4745,62.4283 H 250.449 V 57.0924 H 76.4745 Z" /></clipPath><clipPath
       id="clipPath332"
       clipPathUnits="userSpaceOnUse"><path
         id="path330"
         d="M 16.626,59.473 H 225.932 V 119 H 16.626 Z" /></clipPath><clipPath
       id="clipPath424"
       clipPathUnits="userSpaceOnUse"><path
         id="path422"
         d="M 0,0 H 240.945 V 155.906 H 0 Z" /></clipPath></defs><g
     transform="matrix(1.3333333,0,0,-1.3333333,-6.6725332,86.517331)"
     id="g10"><g
       transform="translate(7.8837,64.1345)"
       id="g42"><path
         id="path44"
         style="fill:#83a7dd;fill-opacity:1;fill-rule:nonzero;stroke:none"
         d="M 0,0 -1.83,0.63 V -2.706 L -0.559,-3.166 0,-2.706 Z" /></g><g
       transform="translate(73.7004,64.7642)"
       id="g46"><path
         id="path48"
         style="fill:#cbd8f1;fill-opacity:1;fill-rule:nonzero;stroke:none"
         d="M 0,0 -2.877,-0.56 0,-1.653 Z" /></g><g
       transform="translate(77.4191,61.6888)"
       id="g50"><path
         id="path52"
         style="fill:#cbd8f1;fill-opacity:1;fill-rule:nonzero;stroke:none"
         d="m 0,0 -4.771,-1.887 1.964,-2.096 v -0.622 l 2.809,1.135 z" /></g><g
       transform="translate(72.0875,54.2825)"
       id="g54"><path
         id="path56"
         style="fill:#cbd8f1;fill-opacity:1;fill-rule:nonzero;stroke:none"
         d="m 0,0 -12.421,-2.378 -6.103,-1.326 V -7.058 L 0,-3.351 Z" /></g><g
       transform="translate(53.5623,50.5776)"
       id="g58"><path
         id="path60"
         style="fill:#83a7dd;fill-opacity:1;fill-rule:nonzero;stroke:none"
         d="M 0,0 -12.209,3.075 V -0.291 L -0.001,-3.353 Z" /></g><g
       transform="translate(41.3533,53.6524)"
       id="g62"><path
         id="path64"
         style="fill:#cbd8f1;fill-opacity:1;fill-rule:nonzero;stroke:none"
         d="m 0,0 -6.104,-1.258 0.001,-3.361 6.101,1.253 z" /></g><g
       transform="translate(35.2488,52.3925)"
       id="g66"><path
         id="path68"
         style="fill:#b3c6ea;fill-opacity:1;fill-rule:nonzero;stroke:none"
         d="m 0,0 -10.034,-0.07 -0.002,-3.367 10.038,0.076 z" /></g><g
       transform="translate(25.2148,52.3247)"
       id="g70"><path
         id="path72"
         style="fill:#9ab6e3;fill-opacity:1;fill-rule:nonzero;stroke:none"
         d="M 0,0 -9.122,1.607 V -1.762 L 0,-3.369 Z" /></g><g
       transform="translate(7.884,61.4286)"
       id="g74"><path
         id="path76"
         style="fill:#6c99d7;fill-opacity:1;fill-rule:nonzero;stroke:none"
         d="M 0,0 0.982,0.819 0,2.706 Z" /></g><g
       transform="translate(15.3916,55.3994)"
       id="g78"><path
         id="path80"
         style="fill:#83a7dd;fill-opacity:1;fill-rule:nonzero;stroke:none"
         d="m 0,0 -10.385,3.634 v -3.35 l 9.052,-3.166 v 1.201 z" /></g><g
       transform="translate(74.3589,64.888)"
       id="g82"><path
         id="path84"
         style="fill:#ffffff;fill-opacity:1;fill-rule:nonzero;stroke:none"
         d="m 0,0 -3.535,-0.684 6.595,-2.515 -4.771,-1.887 1.964,-2.097 -2.525,-3.424 -12.387,-2.5 -6.138,-1.203 -12.209,3.074 -6.104,-1.258 -10.034,-0.069 -9.122,1.607 -2.035,-0.21 1.334,1.677 -10.385,3.634 3.859,3.215 -0.982,1.887 L -68.65,0 Z" /></g><g
       id="g86"><g
         clip-path="url(#clipPath92)"
         id="g88"><g
           id="g94"><g
             id="g96" /><g
             id="g108"><g
               style="opacity:0.80000299"
               id="g106"
               clip-path="url(#clipPath100)"><g
                 id="g104"
                 transform="translate(77.421,58.2184)"><path
                   id="path102"
                   style="fill:#9ab6e3;fill-opacity:1;fill-rule:nonzero;stroke:none"
                   d="M 0,0 -2.809,-1.134 V -4.352 L 0,-3.218 Z" /></g></g></g></g><g
           id="g110"><g
             id="g112" /><g
             id="g124"><g
               style="opacity:0.80000299"
               id="g122"
               clip-path="url(#clipPath116)"><g
                 id="g120"
                 transform="translate(7.325,60.9687)"><path
                   id="path118"
                   style="fill:#568cd1;fill-opacity:1;fill-rule:nonzero;stroke:none"
                   d="M 0,0 -1.271,0.46 V -1.053 Z" /></g></g></g></g><g
           id="g126"><g
             id="g128" /><g
             id="g140"><g
               style="opacity:0.80000299"
               id="g138"
               clip-path="url(#clipPath132)"><g
                 id="g136"
                 transform="translate(72.0863,50.9313)"><path
                   id="path134"
                   style="fill:#9ab6e3;fill-opacity:1;fill-rule:nonzero;stroke:none"
                   d="m 0,0 -18.525,-3.707 v -3.334 l 6.051,1.334 L 0,-3.336 Z" /></g></g></g></g><g
           id="g142"><g
             id="g144" /><g
             id="g156"><g
               style="opacity:0.80000299"
               id="g154"
               clip-path="url(#clipPath148)"><g
                 id="g152"
                 transform="translate(53.5609,47.2247)"><path
                   id="path150"
                   style="fill:#568cd1;fill-opacity:1;fill-rule:nonzero;stroke:none"
                   d="M 0,0 -12.209,3.062 V -0.267 L 0,-3.335 Z" /></g></g></g></g><g
           id="g158"><g
             id="g160" /><g
             id="g172"><g
               style="opacity:0.80000299"
               id="g170"
               clip-path="url(#clipPath164)"><g
                 id="g168"
                 transform="translate(25.2129,48.9594)"><path
                   id="path166"
                   style="fill:#6c99d7;fill-opacity:1;fill-rule:nonzero;stroke:none"
                   d="M 0,0 -9.12,1.603 V -1.715 L 0,-3.329 Z" /></g></g></g></g><g
           id="g174"><g
             id="g176" /><g
             id="g188"><g
               style="opacity:0.80000299"
               id="g186"
               clip-path="url(#clipPath180)"><g
                 id="g184"
                 transform="translate(14.0584,52.5113)"><path
                   id="path182"
                   style="fill:#568cd1;fill-opacity:1;fill-rule:nonzero;stroke:none"
                   d="M 0,0 -9.054,3.172 V -0.18 L 0,-3.352 Z" /></g></g></g></g></g></g><g
       transform="translate(16.0933,53.932)"
       id="g190"><path
         id="path192"
         style="fill:#cbd8f1;fill-opacity:1;fill-rule:nonzero;stroke:none"
         d="M 0,0 -2.035,-0.21 V -3.579 L 0,-3.369 Z" /></g><g
       id="g194"><g
         clip-path="url(#clipPath200)"
         id="g196"><g
           id="g202"><g
             id="g204" /><g
             id="g216"><g
               style="opacity:0.80000299"
               id="g214"
               clip-path="url(#clipPath208)"><g
                 id="g212"
                 transform="translate(16.0933,50.5627)"><path
                   id="path210"
                   style="fill:#9ab6e3;fill-opacity:1;fill-rule:nonzero;stroke:none"
                   d="M 0,0 -2.035,-0.21 V -3.528 L 0,-3.319 Z" /></g></g></g></g></g></g><g
       transform="translate(74.6124,57.7054)"
       id="g218"><path
         id="path220"
         style="fill:#e5ebf8;fill-opacity:1;fill-rule:nonzero;stroke:none"
         d="M 0,0 -2.526,-3.424 -2.525,-6.782 0,-3.364 Z" /></g><g
       id="g222"><g
         clip-path="url(#clipPath228)"
         id="g224"><g
           id="g230"><g
             id="g232" /><g
             id="g244"><g
               style="opacity:0.80000299"
               id="g242"
               clip-path="url(#clipPath236)"><g
                 id="g240"
                 transform="translate(74.6122,54.3413)"><path
                   id="path238"
                   style="fill:#b3c6ea;fill-opacity:1;fill-rule:nonzero;stroke:none"
                   d="M 0,0 -2.526,-3.424 V -6.748 L 0,-3.324 Z" /></g></g></g></g><g
           id="g246"><g
             id="g248" /><g
             id="g262"><g
               style="opacity:0.80000299"
               id="g260"
               clip-path="url(#clipPath252)"><g
                 id="g258"
                 transform="matrix(0.9999619,0.0087265,0.0174531,-0.9998858,120.47244,77.952759)"><g
                   id="g256"
                   transform="translate(-85.7171,28.1745)"><path
                     id="path254"
                     style="fill:#83a7dd;fill-opacity:1;fill-rule:nonzero;stroke:none"
                     d="m 0,0 -10.038,-0.01 -0.058,3.325 c 0,0 10.035,0.013 10.038,0.01 z" /></g></g></g></g></g><g
           id="g264"><g
             id="g266" /><g
             id="g280"><g
               style="opacity:0.80000299"
               id="g278"
               clip-path="url(#clipPath270)"><g
                 id="g276"
                 transform="matrix(0.9799247,0.1993679,0,-1.0204866,120.47244,77.952759)"><g
                   id="g274"
                   transform="translate(-80.742,11.3368)"><path
                     id="path272"
                     style="fill:#9ab6e3;fill-opacity:1;fill-rule:nonzero;stroke:none"
                     d="M 0,0 -6.226,0.004 V 3.27 L 0,3.267 Z" /></g></g></g></g></g></g></g><g
       transform="translate(25.2129,48.9556)"
       id="g282"><path
         id="path284"
         style="fill:#e5ebf8;fill-opacity:1;fill-rule:nonzero;stroke:none"
         d="M 0,0 0.133,3.26 2.08,3.384 0.002,3.369 -3.035,3.904 -0.084,3.276 Z" /></g><g
       transform="translate(29.48,52.3543)"
       id="g286"><path
         id="path288"
         style="fill:#e5ebf8;fill-opacity:1;fill-rule:nonzero;stroke:none"
         d="M 0,0 5.674,-0.05 5.77,-3.321 5.843,-0.05 8.945,0.695 5.767,0.05 Z" /></g><g
       transform="translate(54.622,50.7855)"
       id="g290"><path
         id="path292"
         style="fill:#e5ebf8;fill-opacity:1;fill-rule:nonzero;stroke:none"
         d="m 0,0 -1.063,-0.171 -8.839,2.19 8.736,-2.313 0.107,-3.267 0.089,3.26 z" /></g><g
       transform="translate(54.8372,50.8276)"
       id="g294"><path
         id="path296"
         style="fill:#f2f5fb;fill-opacity:1;fill-rule:nonzero;stroke:none"
         d="m 0,0 17.164,3.314 0.085,-3.225 0.068,3.332 2.458,3.457 -2.554,-3.392 z" /></g><g
       transform="translate(77.421,58.2036)"
       id="g298"><path
         id="path300"
         style="fill:#f2f5fb;fill-opacity:1;fill-rule:nonzero;stroke:none"
         d="M 0,0 -0.07,3.373 -4.773,1.598 -0.002,3.485 Z" /></g><g
       transform="translate(14.0584,50.0635)"
       id="g450"><path
         id="path452"
         style="fill:#e5ebf8;fill-opacity:1;fill-rule:nonzero;stroke:none"
         d="M 0,0 0.053,3.61 2.035,3.868 0,3.659 Z" /></g></g></svg>