<svg fill="none" height="35.196701" viewBox="0 0 152.218 35.196701" width="152.218" xmlns="http://www.w3.org/2000/svg"><g fill="#000"><path d="m79.1478 33.4572-13.7439-17.1897 11.5928-14.52604c.2618-.32807.3198-.748315.14-1.12901-.1799-.380695-.5408-.60925996-.9608-.60925996h-7.4639c-.3299 0-.6187.13246196-.8233.39068796l-1.7988 2.270782-10.0616 12.70204v-14.30275c0-.585556-.4776-1.06331152-1.063-1.06331152h-6.6831c-.5853 0-1.063.47775552-1.063 1.06331152v33.06945c0 .5855.4777 1.0632 1.063 1.0632h6.6831c.5854 0 1.063-.4777 1.063-1.0632v-15.4782l9.8408 12.4229 2.9521 3.7267c.2046.2583.4935.3906.8233.3906h8.6825c.4198 0 .7809-.2285.9607-.6092.1799-.3807.1226-.8008-.1399-1.129z"/><path d="m83.3131 6.58547-2.3146-2.913c-.2087-.26163-.5026-.40227-.8396-.40047-.3371.00181-.6261.14554-.8324.41334l-4.1538 5.38395c-.303.39249-.2976.92628.0109 1.31331l19.1661 24.0386c.2063.2588.4934.3975.825.3993s.62-.1345.8287-.3902l17.9866-22.0202c.158-.1943.239-.4139.239-.6653l-.004-10.61877c0-.457128-.271-.85207-.702-1.00792-.431-.15585-.893-.0285969-1.183.326797l-4.539 5.548943-12.6591 15.47815z"/><path d="m33.0758 13.2007v20.9329c0 .5856.4774 1.0631 1.0628 1.0631h6.6836c.5854 0 1.0629-.4778 1.0627-1.0635v-20.9319c.0004-.5857-.4772-1.0637-1.0627-1.0637h-6.6836c-.5854 0-1.0628.4775-1.0628 1.0631z"/><path d="m40.8213 0h-6.6823c-.5854 0-1.0627.477543-1.0627 1.0631v6.6855c0 .58566.4775 1.06321 1.0629 1.0631h6.6819c.5855.00011 1.063-.47744 1.063-1.0631v-6.6855c-0-.585557-.4774-1.0631-1.0628-1.0631z"/><path d="m117.558 1.06395v33.06945c0 .5855.478 1.0632 1.063 1.0632h6.58c.585 0 1.063-.4777 1.063-1.0632v-20.7173l7.796 9.6875c.209.2593.495.3964.828.3964s.619-.1371.828-.3964l7.797-9.6875v20.7173c0 .5855.477 1.0632 1.062 1.0632h6.58c.586 0 1.063-.4777 1.063-1.0632v-33.06945c0-.585556-.477-1.06331152-1.063-1.06331152h-6.194c-.335 0-.623.13873352-.831.40046752l-9.242 11.599494-9.241-11.599494c-.208-.261734-.497-.40046751-.831-.40046751h-6.195c-.585 0-1.063.47775552-1.063 1.06331152z"/><path clip-rule="evenodd" d="m8.86034 23.4731v10.6602c0 .5856-.4774 1.0631-1.06277 1.0631h-6.7348c-.585372 0-1.06277-.4775-1.06277-1.0631v-33.0701c0-.58555.477398-1.06309366 1.06277-1.06309366 3.95924 0 8.16236.00032273 12.35293.0006445 3.7858.00029069 7.5614.00058059 11.1376.00063104 1.756 0 3.1883 1.43273813 3.1883 3.18929813v17.09041999c0 1.7567-1.4324 3.1893-3.1885 3.1893h-1.3138-.0016c-4.6324 0-9.8706 0-14.37736.0027zm10.07206-16.92601v10.07521h-10.07206v-10.07521z" fill-rule="evenodd"/></g></svg>